<?xml version="1.0" encoding="utf-8"?>
<!-- Generator: Adobe Illustrator 23.0.1, SVG Export Plug-In . SVG Version: 6.00 Build 0)  -->
<svg version="1.1" id="Layer_1" xmlns="http://www.w3.org/2000/svg" xmlns:xlink="http://www.w3.org/1999/xlink" x="0px" y="0px"
	 viewBox="0 0 183.61 89.71" style="enable-background:new 0 0 183.61 89.71;" xml:space="preserve">
<style type="text/css">
	.st0{fill:#DC0232;}
	.st1{fill:#100607;}
</style>
<g>
	<path class="st0" d="M2.16,41.47c-0.72,0-1.44,0-2.16,0c0-0.24,0-0.48,0-0.72c0.84-0.47,0.79-1.44,1.03-2.16
		c0.73-2.22,1.59-4.38,2.42-6.55c0.4-1.03,0.88-2.04,1.2-3.09c0.1-0.32,0.3-0.48,0.51-0.76c5.4,0,10.84,0,16.42,0
		c-0.23-1.45,0.25-2.79,0.45-4.14c0.22-1.47,0.47-2.97,0.91-4.44c0.45-1.49,0.87-3,1.42-4.45c0.53-1.39,1.1-2.82,1.93-4.04
		c2.48-3.66,5.42-6.86,9.62-8.63c2-0.84,4.04-1.54,6.16-2.06c2.69-0.66,5.42-0.37,8.12-0.28c1.45,0.05,2.86,0.84,4.29,1.27
		c2.16,0.64,3.68,2.17,5.42,3.39c0.43,0.3,1.03,0.48,1.27,1.04c-0.1,0.04-0.27,0.06-0.29,0.12c-0.05,0.22,0.11,0.25,0.29,0.24
		c-0.04,0.85,0.51,1.36,1.09,1.74c-0.05,0.45-0.74,0.68-0.35,1c0.43,0.24,0.75-0.01,1.08,0.33c-0.36,1.17,0.34,2.28,0.39,3.5
		c0.04,1.3-0.57,2.48-0.43,3.72c-0.78,0.64-0.91,1.61-1.43,2.33c-0.46,0.65-1.19,1.07-1.61,1.78c-0.48,0-0.95,0-1.45,0
		c-0.54,0.79-1.53,0.91-2.24,1.44c-1.32,0-2.63,0-3.94,0c-0.24,0-0.49,0.01-0.46,0.36c-2-1.22-3.89-2.57-5.13-4.61
		c-0.34-0.55-0.67-1.19-0.61-1.86c0.04-0.47-0.33-0.71-0.39-1.09c-0.06-0.96,0.11-1.95-0.13-3.04c-2.9,1.88-3.7,4.68-4.17,7.63
		c-0.08,0.52,0.07,1.09-0.03,1.61c-0.38,2.1-0.48,5-0.16,6.75c0.54,0,1.07,0,1.61,0c45.43,0,90.86,0,136.27,0
		c0.47,0.58-0.03,0.98-0.19,1.44c-1.08,1.28-1.49,2.92-2.35,4.32c-0.16,0.02-0.36-0.08-0.51,0.19c-0.02,0.35-0.03,0.75-0.05,1.13
		c-0.26,0.09-0.46,0.17-0.66,0.24c-0.02,0.44-0.05,0.84-0.07,1.22c-0.27,0.09-0.48,0.17-0.67,0.23c-0.07,0.44,0.09,0.87,0.07,0.92
		c-1.45,1.25-1.6,2.85-2.54,4.06c-43.29,0-86.63,0-130.03,0c0,12.53,0,25,0,37.46c0,0.05-0.03,0.11-0.06,0.15
		c-0.03,0.05-0.08,0.08-0.13,0.12c-6.18,0-12.35,0-18.53,0c-0.54,0-1.08,0-1.63,0c-0.03-0.04-0.08-0.08-0.11-0.13
		c-0.03-0.05-0.06-0.1-0.06-0.15c0-12.03,0-24.05,0-36.08c-0.06-0.46,0.12-0.94-0.12-1.44C15.04,41.47,8.6,41.47,2.16,41.47z
		 M130.34,34.66c0.19-0.12,0.47,0.11,0.66-0.18c0-0.74,0-1.5,0-2.29c-0.97-0.26-2.03,0.23-2.86-0.47c-0.78,0.55-1.82,0.45-2.45,1.25
		c0.06,0.51-0.26,0.93-0.42,1.37c0.81,1.98,2.6,1.97,4.23,2.17c0.57,0.91,0.57,0.91-0.13,1.7c-0.61,0-1.21,0-1.47,0
		c-1.1-0.43-1.33-1.36-2.18-1.97c0,0.88,0,1.56,0,2.35c1.39-0.19,2.68,0.74,4.23,0.24C131.9,37.68,131.81,36.54,130.34,34.66z
		 M155.19,38.19c-0.1-0.42,0.09-0.74-0.14-0.97c-0.74-0.35-0.49,0.43-0.79,0.64c-0.79-0.6-0.54-1.94-1.69-2.37
		c0.6-0.01,0.9-0.54,1.57-0.6c-0.4-0.52,0.42-0.6,0.29-1.06c-0.24-0.91-0.87-1.42-1.5-1.64c-2.01,0-3.8,0-5.59,0.01
		c-0.03,0-0.07,0.09-0.1,0.13c0.01,0.12,0.02,0.23,0.03,0.38c0.26,0.3,0.7-0.04,1.01,0.26c0,1.57,0,3.17,0,4.77
		c-0.02,0.63-1.28,0.21-0.95,1.24c1.31-0.14,2.67,0.31,3.88-0.57c-0.26-0.36-0.69-0.03-1.01-0.27c0-0.79,0-1.59,0-2.39
		c0.48-0.03,0.89-0.12,1.22,0.03c0.64,0.71,0.48,1.56,0.5,2.05c0.41,0.53,0.67,0.86,0.88,1.13c0.79-0.03,1.52,0.15,2-0.42
		c1.09,0.51,3.24,0.59,7.12,0.32c0.45-2.07,0.45-2.07-0.13-2.76c-0.54,0.46-0.68,1.16-0.93,1.59c-0.81,0.61-1.59,0.63-2.32,0.5
		c-0.2-0.2-0.33-0.33-0.45-0.45c0-0.65,0-1.29,0-1.92c0.38-0.12,0.69-0.19,1.02,0.05c0.33,0.25,0.39,0.55,0.38,0.93
		c-0.01,0.46,0.31,0.38,0.63,0.28c0-1.05,0-2.09,0-3.27c-0.81,0.27-0.91,1.77-2.07,1.02c0.06-0.66-0.3-1.42,0.51-1.97
		c0.59,0,1.23,0,1.69,0c0.44,0.35,0.76,0.62,1,0.81c0.08,0.39-0.11,0.72,0.2,0.95c0.16-0.03,0.36,0.08,0.55-0.23
		c-0.07-0.69,0.1-1.5-0.08-2.22c-2.33,0-4.53,0-6.76,0c0.02,0.23,0.03,0.4,0.04,0.58c0.32,0.21,0.75-0.1,0.98,0.19
		c0,1.77,0,3.49,0,5.25C155.85,38.19,155.57,38.19,155.19,38.19z M103.22,35.5c0.8-0.2,1.23-0.64,1.49-1.19
		c0.35-0.74-0.26-1.21-0.43-1.74c-0.69-0.44-1.42-0.52-2.18-0.48c-0.77,0.04-1.55-0.01-2.33,0.01c-0.74,0.02-1.5-0.12-2.23,0.11
		c0.02,0.23,0.03,0.34,0.04,0.53c0.31,0.05,0.64,0.1,0.97,0.15c0,1.79,0,3.55,0,5.22c-0.25,0.18-0.56-0.02-0.59,0.47
		c1.13,0,2.25,0,3.37-0.01c0.05,0,0.09-0.15,0.15-0.27c-0.31-0.23-0.74,0.1-1-0.22c0-0.76,0-1.52,0-2.27
		c0.43-0.2,0.84-0.1,1.24-0.09c0.17,0.17,0.34,0.34,0.51,0.51c0,0.59,0,1.19,0,1.77c0.31,0.31,0.6,0.6,0.92,0.92
		c0.78,0.09,1.57,0.07,2.27-0.46c-0.08-0.46,0.27-0.86,0.33-1.19c-0.92-0.49-0.39,0.82-1.06,0.59
		C103.96,37.29,104.22,36.13,103.22,35.5z M97.2,36.64c0-0.59,0.03-1.19-0.01-1.78c-0.08-1.13-1.59-2.7-2.71-2.73
		c-1.72-0.05-3.43-0.01-5.07-0.01c-0.16,0.29-0.16,0.45,0,0.7c0.22,0.18,0.65-0.17,0.91,0.15c0,1.6,0,3.2,0,4.59
		c-0.16,0.75-1.13,0.43-1.03,1.32c0.84,0.15,1.72,0.04,2.59,0.06c0.89,0.02,1.78,0,2.43,0C95.58,38.33,96.77,37.94,97.2,36.64z
		 M83.88,33.66c0.16-0.81-0.51-1.11-0.93-1.52c-0.74,0-1.46,0-1.99,0c-0.43,0.36-0.76,0.62-1.06,0.87c0,0.77,0,1.48,0,2.19
		c-0.85,0.25-1.26,0.98-1.82,1.44c0.38,1.52,0.38,1.52,1.69,2.34c0.66-0.19,1.43,0.27,2.16-0.34c0.28-0.24,1.05-0.22,1.38,0
		c1.17,0.77,1.92,0.1,2.73-0.56c-0.07-0.31,0.12-0.62-0.12-0.85c-0.82-0.46-0.4,0.74-0.89,0.66c-0.45-0.04-0.61-0.36-0.8-0.64
		c0.11-0.96,0.87-1.45,1.78-2.15c-1.17-0.12-2.01-0.15-3.15,0.03c0.51,0.37,0.8,0.57,1.04,0.75c-0.12,0.39,0.19,0.86-0.39,0.92
		c-0.97-1.3-0.97-1.3-1.08-1.98C83.04,34.58,83.53,34.2,83.88,33.66z M66.82,38.53c2.15,0,4.11,0,5.38,0
		c1.77-0.26,1.95-1.18,2.39-2.08c0.52-1.08-0.05-1.86-0.13-2.77c-0.6-0.62-1.17-1.29-1.81-1.5c-2.01,0-3.8,0-5.59,0.01
		c-0.04,0-0.07,0.09-0.11,0.13c0.01,0.12,0.01,0.23,0.02,0.38c0.26,0.3,0.69-0.03,0.98,0.22c0,1.77,0,3.53,0,5.26
		C67.6,38.31,67.28,38.1,66.82,38.53z M114.12,36.52c0.37,1.02,1.08,1.53,1.72,2.05c1.51,0.74,2.95,0.36,4.34-0.26
		c0.05,0.25,0.09,0.41,0.15,0.71c0.33-0.2,0.69,0.12,1.04-0.32c0-0.69,0-1.45,0-2.2c0.41-0.07,0.81-0.08,0.59-0.8
		c-1.14,0.06-2.34-0.09-3.55,0.1c0.02,0.25,0.04,0.37,0.04,0.42c0.12,0.28,0.32,0.2,0.49,0.2c0.23,0.01,0.48-0.06,0.6,0.4
		c-0.35,0.32-0.35,0.96-0.85,1.32c-0.8,0.35-1.41-0.15-2.02-0.45c-0.62-1-0.35-2.07-0.4-3.11c0.5-0.34,0.28-0.95,0.52-1.41
		c0.3-0.57,0.91-0.16,1.25-0.5c0.07-0.07,0.17-0.12,0.26-0.19c0.23,0.58,0.9,0.12,1.2,0.5c-0.03,0.76,1.02,0.87,0.78,1.66
		c0.41-0.09,0.73,0.1,1-0.17c0-0.74,0-1.51,0-2.24c-0.08-0.07-0.12-0.13-0.17-0.14c-1.56-0.01-3.11,0-4.42,0
		c-1.36,0.49-2.07,1.36-2.57,2.43C114.12,35.2,114.12,35.86,114.12,36.52z M143.96,32.11c-0.75,0-1.7,0-2.66,0
		c-2.8,2.42-2.87,3.12-1.27,5.93c0.47,0.41,1.18,0.39,1.6,0.88c1.18,0.12,2.31,0.03,3.19-0.36c0.68-0.63,1.21-1.12,1.74-1.62
		c-0.15-0.62,0-1.16,0.4-1.63c-0.48-0.37-0.42-0.86-0.5-1.29C145.73,33.33,145.12,32.52,143.96,32.11z M50.77,36.8
		c1.24,2.02,2.91,2.45,4.61,2.14c1.28-0.4,1.85-1.33,2.55-1.93c0-1.08,0-2.03,0-2.96c-0.93-0.68-1.24-2.07-2.79-1.98
		c-1.28,0.08-2.51,0.11-3.6,0.98c-0.01,0.44-0.46,0.68-0.77,1.03C50.77,35.02,50.77,35.98,50.77,36.8z M61.56,32.11
		c-2.73,0.59-2.68,2.52-2.47,4.57c1.34,2.13,1.74,2.32,4.65,2.23c1.16-0.39,1.74-1.23,2.51-1.95c-0.05-0.59-0.06-1.22,0.45-1.69
		c-0.68-0.51-0.24-1.52-1.08-1.81c-0.09-0.83-1.11-0.71-1.33-1.36C63.35,32.11,62.45,32.11,61.56,32.11z M111.98,33.58
		c-0.24,1.28,0.42,2.86-0.51,4.24c-0.77,0-1.54,0-2.25,0c-0.17-0.17-0.3-0.3-0.46-0.46c0-1.45,0-2.93,0-4.39
		c0.3-0.21,0.97-0.09,0.6-0.78c-1.28,0-2.56,0-3.84,0c-0.02,0.25-0.09,0.43,0.15,0.63c0.21,0.16,0.65-0.18,0.9,0.19
		c0,1.44,0,2.88,0,4.32c0.46,0.33,0.33,1.22,1.06,1.24c0.64,0.02,1.15,0.51,1.83,0.4c0.52-0.09,1.07-0.02,1.37-0.02
		c0.87-0.32,1.43-0.72,1.86-1.31c0-1.42,0-2.86,0-4.29c-0.08-0.75,1.38-0.13,0.99-1.17c-0.91,0-1.84,0-2.75,0
		c-0.02,0.18-0.04,0.3-0.05,0.41C111.08,32.98,111.65,32.83,111.98,33.58z M163.14,36.16c0,1.13,0,1.94,0,2.72
		c0.63,0.3,0.96-0.67,1.5-0.27c0.98,0.72,2.03,0.17,2.93,0.36c0.5-0.5,0.88-0.88,1.26-1.26c0-0.6,0-1.2,0-1.76
		c-1.07-1.5-2.8-1.36-4.29-1.78c-0.02-0.43-0.12-0.84,0.06-1.22c0.37-0.16,0.73-0.31,1.09-0.47c0.33,0.63,1.07,0.21,1.54,0.68
		c0.45,0.45,0.45,1.2,1.08,1.44c0.19-0.17,0.36-0.33,0.52-0.47c0.05-0.45,0.04-0.84-0.33-1.13c0.22-0.21,0.47-0.4,0.25-0.81
		c-1.44,0-2.92,0-4.47,0c-0.73,0.66-1.38,1.46-1.18,2.66c0.59,0.61,1.26,1.04,2.14,1.31c0.83,0.25,1.81,0.19,2.51,0.86
		c-0.08,0.67-0.08,0.67-0.51,1.21c-0.93,0.08-1.85,0.11-2.67-0.45C164.45,37.06,163.95,36.71,163.14,36.16z M48.11,32.88
		c0.56,0.59,1.2,1.11,1.79,2.18c0.19-1.26,0.17-2.1,0.08-2.88c-2.32,0-4.52,0-6.68,0c-0.15,0.29-0.12,0.5,0.09,0.66
		c0.28,0.06,0.6-0.13,0.89,0.18c0,0.84,0.02,1.73,0,2.62c-0.02,0.87,0.09,1.75-0.06,2.55c-0.3,0.1-0.61-0.07-0.59,0.33
		c1.18,0,2.34,0,3.54,0c-0.26-0.55-0.84-0.04-1.04-0.38c0-0.84,0-1.6,0-2.36c1.1,0.05,1.11,0.05,1.38,1.05
		c0.11,0.43,0.35,0.36,0.64,0.24c0-1.06,0-2.1,0-3.26c-0.81,0.27-0.9,1.79-2.03,1.05c0-0.65,0-1.29,0-1.98
		C46.81,32.88,47.45,32.88,48.11,32.88z M134.24,37.72c-0.11,0.51-0.73,0.4-1.06,0.77c1.08,0.33,2.19-0.28,3.12,0.4
		c0.13-0.41,0.66-0.16,0.86-0.5c-0.26-0.36-0.69-0.03-1.01-0.27c0-1.74,0-3.5,0-5.28c0.3,0,0.54,0,0.8,0c0.6,0.42,1.08,0.97,1,1.79
		c0.31-0.02,0.5,0.04,0.61-0.15c0-0.77,0-1.53,0-2.31c-2.28,0-4.52,0-6.86,0c0.19,0.86-0.09,1.68,0.18,2.44
		c0.29,0.01,0.47,0.02,0.58-0.16c0.01-0.05,0.02-0.11,0.02-0.17c0-0.18,0-0.36,0-0.54c0.83-0.83,0.83-0.83,1.76-0.83
		C134.24,34.52,134.24,36.12,134.24,37.72z"/>
	<path class="st0" d="M105.48,67.39c0.66,0,1.32,0,1.84,0c0.73-0.35,1.34-0.68,1.76-1.31c0-6.92,0-13.87,0-20.82
		c1.5-0.27,11.53-0.35,17.16-0.14c0.23,0.32,0.07,0.68,0.12,1.03c0,12.84,0,25.67,0,38.47c-0.93,0.15-1.81-0.25-2.43,0.19
		c-0.96,0.69-1.97,0.54-3,0.58c-0.1,0-0.2,0.09-0.29,0.14c-0.04,0.17-0.07,0.33-0.12,0.56c-1.15,0.06-2.36-0.21-3.4,0.39
		c-0.66,0.38-1.33,0.36-2.01,0.33c-0.83-0.03-1.61,0.06-2.24,0.73c-0.46,0-0.94,0.04-1.41-0.01c-0.5-0.06-0.78,0.55-1.29,0.37
		c-0.48,0.39-1.04,0.4-1.8,0.33c0-2.13,0-4.29,0-6.45c0.23,0.04,0.35-0.1,0.35-0.28c0.01-1.08,0.11-2.17-0.02-3.23
		c-0.12-0.98-0.38-1.96-0.41-2.96c-1.26,0.74-1.94,2.12-3.47,2.24c-0.07,0.24,0.01,0.51-0.29,0.64c-0.33,0-0.68,0-1.07,0
		c-0.07,0.21-0.15,0.41-0.21,0.61c-0.91,0.68-2.22,0.55-2.93,1.49c-1.28,0-2.52,0-3.72,0c-0.16-0.24-0.03-0.53-0.3-0.66
		c-0.53,0-1.07,0-1.61,0c-0.18,0-0.41,0.07-0.53-0.01c-2.24-1.64-3.46-2.84-4.77-5.16c-0.59-1.04-0.83-2.28-1.18-3.45
		c-0.55-1.89-0.56-3.85-0.81-5.78c-0.24-1.82-0.21-3.61-0.26-5.42c-0.05-1.79-0.01-3.58-0.01-5.38c0-1.44,0-2.88,0-4.32
		c0-1.62,0-3.24,0-4.85c1.51-0.27,10.98-0.34,16.44-0.13c0.23,0.32,0.07,0.68,0.12,1.03c0.19,1.82-0.49,3.57-0.39,5.41
		c0.13,2.32,0.01,4.66,0.04,6.98c0.01,0.91-0.25,1.86,0.33,2.73c0.14,0.21,0.15,0.72,0,0.86c-0.55,0.5-0.24,1.11-0.34,1.67
		c-0.18,1.01,0.55,1.85,0.35,2.9C104.54,66.52,104.69,67.66,105.48,67.39z"/>
	<path class="st0" d="M146.52,76.75c-0.61-0.3-1.03-0.89-1.85-1.02c1.23-2.45,1.57-5.08,3.04-7.3c0.98,0.39,1.94,0.68,2.8,1.14
		c0.84,0.45,1.72,0.77,2.61,1.04c0.96,0.29,1.86,0.86,2.92,0.74c0.78,0.9,1.88,0.07,2.82,0.56c0.92,0.48,2.09,0.13,3.15,0.16
		c1.01,0.03,2.03,0.01,3.07,0.01c0.37-0.5,0.99-0.81,1.24-1.44c0.08-0.64-0.24-1.01-0.84-1.07c-0.6-0.06-1.06-0.35-1.51-0.72
		c-1.3-0.12-2.67,0.27-3.93-0.38c-0.82-0.43-1.68-0.34-2.64-0.35c-0.17-0.22-0.4-0.49-0.59-0.73c-0.79,0-1.5,0-2.19,0
		c-0.22-0.22-0.43-0.43-0.73-0.73c-0.47,0.23-1.15-0.35-1.6,0.38c-2.21-1.31-4.12-2.93-5.61-5.04c-0.24-0.34-0.1-0.66-0.22-0.99
		c-0.65-1.74-0.66-2.5-0.3-4.25c0.12-0.61-0.2-1.3,0.37-1.82c0.03-1.57,0.96-2.71,1.78-3.94c0.82-1.24,1.88-2.14,3.01-3.08
		c0.85-0.7,1.76-1.27,2.69-1.8c1.05-0.6,2.21-1.04,3.37-1.37c2.25-0.64,4.52-1.27,6.91-1.11c0.77,0.05,1.56,0.02,2.33,0.01
		c1.45-0.03,2.81,0.41,4.21,0.62c1.25,0.18,2.39,0.7,3.63,0.85c1.09,0.14,2.06,0.79,3.12,1.13c1.01,0.32,2.02,0.88,3.03,1.33
		c0.55,0.25,0.91,0.46,0.84,1.11c-0.33,1.75-1.06,3.37-1.54,5.04c-0.58,0-1.05,0-1.53,0c-0.7-0.76-1.63-0.75-2.51-0.71
		c-0.26-0.26-0.47-0.47-0.75-0.75c-0.86,0.1-1.78,0.08-2.49-0.7c-0.35,0-0.71-0.03-1.06,0.01c-1.53,0.15-2.97-0.63-4.51-0.37
		c-1.19-0.77-2.26-0.21-3.35,0.26c-0.2,0.09-0.46,0.12-0.67,0.08c-0.51-0.09-0.74,0.27-1.03,0.55c0.05,0.4-0.12,0.82,0.18,1.31
		c0.77,0.01,1.05,1.1,1.98,1.03c0.78-0.25,1.44,0.26,2.16,0.38c1.97,0.34,3.91,0.78,5.83,1.39c0.91,0.29,1.8,0.68,2.53,1.16
		c1.19,0.79,2.5,1.43,3.51,2.47c0,0.33,0,0.66,0,1.08c0.42,0,0.75,0,1.08,0c0.25-0.01,0.37,0.11,0.36,0.36c0,0.3,0,0.6,0,0.89
		c0.13,0.26,0.43,0.13,0.61,0.26c0.56,1.29,1.11,2.55,1.25,3.99c0.04,0.38,0.42,0.87,0.27,1.28c-0.19,0.55-0.48,1.08-0.32,1.65
		c0.19,0.7-0.32,1.2-0.44,1.82c-0.23,1.23-0.86,2.41-1.66,3.38c-0.38,0.46-0.66,0.93-0.93,1.43c-0.54,0.01-0.79,0.45-1.12,0.76
		c-0.39,0.37-0.74,0.78-1.15,1.13c-0.34,0.29-0.83,0.45-1.09,0.79c-0.38,0.48-1.12-0.05-1.38,0.62c-0.22,0.58-0.88,0.17-1.2,0.48
		c-0.04,0.19-0.07,0.36-0.12,0.58c-0.67,0-1.31,0-2.12,0c-0.14,0.24-0.32,0.55-0.42,0.71c-1.36,0.09-2.5-0.03-3.67,0.33
		c-0.88,0.27-1.9,0.11-2.86,0.04c-0.93-0.07-1.86,0.23-2.79-0.19c-0.88-0.4-1.87-0.07-2.81-0.16c-0.11-0.01-0.24-0.05-0.31-0.12
		c-0.8-0.8-1.83-0.56-3.07-0.62c-0.08-0.15-0.25-0.47-0.39-0.73c-0.48,0-0.83,0-1.14,0c-0.32-0.25-0.47-0.6-0.85-0.69
		c-0.34-0.04-0.71,0.1-1.05-0.12c-0.11-0.18,0.01-0.47-0.25-0.6c-0.53,0-1.07,0-1.61,0c-0.03-0.54-0.45-0.31-0.72-0.36
		c-0.03-0.54-0.45-0.31-0.72-0.36c-0.25,0.01-0.37-0.11-0.36-0.36C147.21,76.57,146.79,76.81,146.52,76.75z"/>
	<path class="st0" d="M49.68,78.91c0-11.37,0-22.74,0-34.15c5.76,0,11.44,0,17.16,0c0.06,0.16,0.13,0.37,0.26,0.74
		c1.65-0.77,3.1-1.95,4.9-2.3c-0.09-0.31-0.42-0.36-0.36-0.65c2.04,0,4.08,0,6.12,0c0.43,0.57,1.13,0.61,1.72,0.68
		c0.67,0.08,1.23,0.53,1.97,0.46c0.35-0.03,0.9,0.34,1.26,0.73c0.35,0.37,0.63,0.85,1.16,1.01c-0.13,0.68,0.22,1.22,0.51,1.76
		c0.6,1.12,1.02,2.27,0.94,3.57c-0.07,1.09,0.17,2.2-0.7,3.14c-0.27,0.29,0.2,0.97-0.28,1.3c-0.55,0.38-0.41,1.42-1.37,1.38
		c-0.3,0.6-0.79,1.23-1.34,1.37c-0.65,0.17-0.78,1.18-1.6,0.85c-0.19,0.43-0.82,0.18-0.98,0.6c-1.38,0-2.74,0-4.07,0
		c-0.15-0.24-0.03-0.53-0.29-0.67c-0.53,0-1.07,0-1.61,0c-1-0.17-1.88-0.7-2.32-1.51c-0.31-0.56-1.09-0.91-0.92-1.73
		c-0.36-0.43-0.4-0.94-0.36-1.47c0.07-0.81-0.38-1.45-0.52-2.08c-0.41-0.11-0.54,0.06-0.62,0.2c-0.56,1.02-1.12,2.05-1.65,3.09
		c-0.1,0.19-0.1,0.45-0.09,0.68c0.22,4.34-0.55,8.64-0.39,12.99c0.11,2.87,0.03,5.76,0.01,8.64c0,0.45,0.18,0.94-0.16,1.36
		C60.59,78.91,55.14,78.91,49.68,78.91z"/>
	<path class="st1" d="M77.76,42.55c-2.04,0-4.08,0-6.12,0c-0.36,0-0.72,0-1.08,0c-0.12,0-0.24,0-0.36,0c-0.24,0-0.48,0-0.72,0
		c-0.36,0-0.72,0-1.08,0c-2.28,0-4.56,0-6.84,0c-0.72,0-1.44,0-2.16,0c-4.44,0-8.88,0-13.32,0c-0.12,0-0.24,0-0.36,0
		c-0.24,0-0.48,0-0.72,0c-0.35,0.14-0.91-0.33-1.08,0.36c0,12.41,0,24.83,0,37.24c-1.48,0.29-14.2,0.38-20.4,0.15
		c-0.23-0.32-0.07-0.69-0.12-1.03c6.18,0,12.35,0,18.53,0c0.04-0.04,0.09-0.07,0.13-0.12c0.03-0.04,0.06-0.1,0.06-0.15
		c0-12.47,0-24.93,0-37.46c43.39,0,86.74,0,130.03,0c0.93-1.21,1.08-2.81,2.54-4.06c0.03-0.05-0.14-0.47-0.07-0.92
		c0.19-0.07,0.4-0.14,0.67-0.23c0.02-0.38,0.04-0.78,0.07-1.22c0.2-0.07,0.4-0.15,0.66-0.24c0.02-0.38,0.03-0.79,0.05-1.13
		c0.15-0.26,0.35-0.16,0.51-0.19c0.86-1.4,1.27-3.04,2.35-4.32c0.7,0,1.41,0,2.14,0c0.09,0.86-0.43,1.44-0.74,1.94
		c-1.23,1.94-2.3,3.96-3.37,5.99c-0.94,1.77-2.08,3.43-2.83,5.4C142.01,42.55,109.89,42.55,77.76,42.55z"/>
	<path class="st0" d="M140.04,58.39c0.03,0.36-0.22,0.35-0.52,0.36c-0.63-1.24-1.32-2.47-2.34-3.42c-0.08-0.32,0.06-0.6-0.16-0.89
		c-0.93-1.26-1.61-2.68-2.41-4.03c-0.92-1.54-1.57-3.23-2.69-4.65c-0.26-0.33-0.17-0.64-0.06-1.02c5.07,0,10.15,0,15.24,0
		c0.44,0.53-0.07,0.94-0.22,1.4c-0.42,0.13-0.56,0.44-0.75,0.83c-0.85,1.79-1.68,3.64-2.76,5.27c-1.23,1.87-2.02,3.98-3.33,5.78
		C139.99,58.12,140.04,58.27,140.04,58.39z"/>
	<path class="st1" d="M110.16,87.91c0.51,0.18,0.79-0.43,1.29-0.37c0.47,0.05,0.95,0.01,1.41,0.01c0.62-0.67,1.4-0.75,2.24-0.73
		c0.69,0.02,1.35,0.04,2.01-0.33c1.05-0.6,2.26-0.33,3.4-0.39c0.05-0.23,0.09-0.4,0.12-0.56c0.09-0.05,0.19-0.14,0.29-0.14
		c1.03-0.04,2.04,0.11,3-0.58c0.62-0.45,1.5-0.05,2.43-0.19c0-12.8,0-25.63,0-38.47c0.54,0,1.08,0,1.62,0
		c0.27,1.59,0.37,25.34,0.16,39.46c-5.85,1.76-11.91,2.67-17.98,4.11C110.16,89.08,110.16,88.5,110.16,87.91z"/>
	<path class="st1" d="M149.04,78.19c0.54,0,1.08,0,1.61,0c0.26,0.13,0.14,0.42,0.25,0.6c0.34,0.22,0.7,0.08,1.05,0.12
		c0.38,0.08,0.53,0.44,0.85,0.69c0.31,0,0.66,0,1.14,0c0.14,0.26,0.31,0.58,0.39,0.73c1.24,0.06,2.27-0.18,3.07,0.62
		c0.07,0.07,0.2,0.11,0.31,0.12c0.94,0.09,1.93-0.24,2.81,0.16c0.93,0.42,1.86,0.12,2.79,0.19c0.95,0.07,1.98,0.23,2.86-0.04
		c1.17-0.36,2.31-0.24,3.67-0.33c0.1-0.16,0.28-0.47,0.42-0.71c0.81,0,1.45,0,2.12,0c0.05-0.22,0.08-0.38,0.12-0.58
		c0.32-0.31,0.98,0.1,1.2-0.48c0.25-0.67,1-0.14,1.38-0.62c0.27-0.34,0.75-0.49,1.09-0.79c0.41-0.35,0.76-0.76,1.15-1.13
		c0.33-0.31,0.58-0.76,1.12-0.76c0.27-0.5,0.55-0.97,0.93-1.43c0.8-0.96,1.43-2.15,1.66-3.38c0.11-0.61,0.63-1.12,0.44-1.82
		c-0.16-0.58,0.12-1.11,0.32-1.65c0.15-0.41-0.24-0.9-0.27-1.28c-0.13-1.44-0.69-2.71-1.25-3.99c-0.18-0.13-0.48,0-0.61-0.26
		c0-0.29,0-0.59,0-0.89c0.18,0,0.36,0,0.54,0c0.3,0.97,1.12,1.58,1.71,2.32c0.62,0.79,0.83,1.72,1.34,2.52
		c-0.26,1.28,0.98,2.55,0.02,3.83c0.17,1.19-0.39,2.21-0.7,3.3c-0.36,1.28-1.08,2.36-1.88,3.35c-1.33,1.64-2.96,3.01-4.79,4.04
		c-1.24,0.7-2.67,1.07-4.04,1.51c-3.07,0.98-6.26,0.91-9.39,0.67c-2.73-0.2-5.4-0.93-8-1.88c-1.62-0.59-3.19-1.26-4.73-2.02
		C149.39,78.76,149.11,78.58,149.04,78.19z"/>
	<path class="st1" d="M49.68,78.91c5.46,0,10.91,0,16.39,0c0.33-0.41,0.15-0.91,0.16-1.36c0.02-2.88,0.1-5.76-0.01-8.64
		c-0.16-4.34,0.61-8.65,0.39-12.99c-0.01-0.23-0.01-0.49,0.09-0.68c0.53-1.04,1.09-2.07,1.65-3.09c0.08-0.14,0.21-0.3,0.62-0.2
		c0.14,0.63,0.59,1.27,0.52,2.08c-0.04,0.53-0.01,1.04,0.36,1.47c-0.18,0-0.36,0-0.54,0c-0.43,0.64-0.4,1.4-0.59,2.1
		c-0.49,1.87-0.03,3.78-0.36,5.6c-0.49,2.71-0.24,5.42-0.3,8.13c-0.06,2.75-0.01,5.51-0.02,8.27c0,0.22,0.1,0.48-0.14,0.71
		c-5.52,0-11.08,0-16.64,0c-0.28-0.24-0.07-0.56-0.15-0.86C50.8,78.89,49.91,79.74,49.68,78.91z"/>
	<path class="st1" d="M105.48,67.39c-0.79,0.27-0.94-0.87-1.81-0.7c0.2-1.04-0.53-1.89-0.35-2.9c0.1-0.55-0.22-1.16,0.34-1.67
		c0.15-0.13,0.14-0.65,0-0.86c-0.58-0.87-0.31-1.82-0.33-2.73c-0.04-2.33,0.08-4.66-0.04-6.98c-0.1-1.83,0.59-3.58,0.39-5.41
		c0.42,0,0.83,0,1.27,0c0.16,0.17,0.32,0.34,0.53,0.56C105.48,53.57,105.48,60.48,105.48,67.39z"/>
	<path class="st1" d="M51.84,22.39c-0.03-0.35,0.22-0.36,0.46-0.36c1.31,0,2.62,0,3.94,0c0.71-0.53,1.7-0.65,2.24-1.44
		c0.5,0,0.97,0,1.45,0c0.42-0.7,1.15-1.13,1.61-1.78c0.51-0.72,0.65-1.68,1.43-2.33c-0.13-1.24,0.48-2.41,0.43-3.72
		c-0.04-1.22-0.74-2.34-0.39-3.5c-0.33-0.34-0.65-0.09-1.08-0.33c-0.38-0.32,0.3-0.55,0.35-1c-0.59-0.39-1.14-0.89-1.09-1.74
		c1.14,0.12,1.67,1.01,2.14,1.85c0.61,1.11,1.28,2.2,1.62,3.47c0.09,0.33,0.19,0.65,0.19,0.99c0.02,0.9,0.01,1.8,0.01,2.7
		c-0.01,3.16-2.67,6.7-5.68,7.56c-1,0.28-4.7,0.57-5.78,0.34C53.06,22.96,52.46,22.63,51.84,22.39z"/>
	<path class="st1" d="M73.08,58.75c0.54,0,1.08,0,1.61,0c0.26,0.14,0.14,0.43,0.29,0.67c1.33,0,2.7,0,4.07,0
		c0.16-0.42,0.79-0.17,0.98-0.6c0.83,0.33,0.95-0.69,1.6-0.85c0.54-0.14,1.03-0.76,1.34-1.37c0.96,0.04,0.82-1.01,1.37-1.38
		c0.49-0.34,0.02-1.01,0.28-1.3c0.87-0.94,0.63-2.06,0.7-3.14c0.09-1.31-0.34-2.45-0.94-3.57c-0.29-0.55-0.64-1.09-0.51-1.76
		c0.6,0.36,1.35,0.48,1.59,1.36c0.11,0.38,0.67,0.63,0.95,1c0.24,0.79,0.13,1.67,0.7,2.32c0,1.44,0,2.88,0,4.32
		c-0.69,0.23-0.35,0.96-0.67,1.42c-0.54,0.77-0.9,1.69-1.55,2.38c-0.58,0.62-1.29,1.14-2.02,1.58c-0.75,0.45-1.58,0.97-2.41,1.05
		c-1.6,0.15-3.25,0.25-4.81-0.43c-0.86-0.37-1.73-0.72-2.57-1.07C73.08,59.11,73.08,58.93,73.08,58.75z"/>
	<path class="st1" d="M164.16,54.43c-0.93,0.07-1.21-1.01-1.98-1.03c-0.3-0.49-0.13-0.91-0.18-1.31c0.29-0.28,0.52-0.64,1.03-0.55
		c0.21,0.04,0.47,0,0.67-0.08c1.09-0.47,2.17-1.04,3.35-0.26c1.53-0.27,2.98,0.51,4.51,0.37c0.35-0.03,0.71-0.01,1.06-0.01
		c0.71,0.78,1.63,0.79,2.49,0.7c0.28,0.28,0.49,0.49,0.75,0.75c0.88-0.04,1.81-0.05,2.51,0.71c0.47,0,0.95,0,1.53,0
		c0.48-1.67,1.21-3.29,1.54-5.04c0.67-0.12,1.2,0.25,1.79,0.52c0.12,2.09-0.94,3.89-1.59,5.95c-0.55-0.13-1.13,0.06-1.87-0.28
		c-1.04-0.47-2.2-0.77-3.36-1c-1.08-0.21-2.17-0.59-3.24-0.8c-1.28-0.25-2.6-0.58-3.97-0.45c-1.62,0.14-3.28-0.16-4.87,0.49
		c-0.29,0.13-0.11,0.63-0.51,0.78C163.89,54.08,164.22,54.14,164.16,54.43z"/>
	<path class="st1" d="M140.04,58.39c0-0.12-0.05-0.27,0.01-0.35c1.31-1.81,2.09-3.91,3.33-5.78c1.08-1.64,1.91-3.48,2.76-5.27
		c0.19-0.4,0.33-0.71,0.75-0.83c0.7,0,1.41,0,2.02,0c0.41,0.61-0.11,0.97-0.26,1.18c-1.38,1.92-2.2,4.15-3.46,6.14
		c-1.16,1.83-2.12,3.79-3.22,5.67c-0.13,0.23,0.1,0.68-0.8,0.66C140.68,59.76,140.66,58.75,140.04,58.39z"/>
	<path class="st1" d="M42.84,27.79c-0.54,0-1.07,0-1.61,0c-0.32-1.76-0.23-4.65,0.16-6.75c0.09-0.52-0.06-1.08,0.03-1.61
		c0.47-2.96,1.27-5.75,4.17-7.63c0.25,1.09,0.08,2.07,0.13,3.04c-1.12,0.64-1.36,1.87-1.75,2.91c-0.53,1.42-1.01,2.93-0.75,4.49
		c0.16,0.96-0.43,1.77-0.39,2.71C42.88,25.89,42.84,26.84,42.84,27.79z"/>
	<path class="st1" d="M2.16,41.47c6.44,0,12.88,0,19.32,0c0.24,0.5,0.05,0.98,0.12,1.44c-6.55,0-13.11,0-19.63,0
		C1.51,42.33,2,41.93,2.16,41.47z"/>
	<path class="st1" d="M94.68,79.63c0.54,0,1.08,0,1.61,0c0.27,0.13,0.14,0.42,0.3,0.66c1.2,0,2.44,0,3.72,0
		c0.7-0.94,2.02-0.8,2.93-1.49c0.07-0.19,0.14-0.4,0.21-0.61c0.39,0,0.75,0,1.07,0c0.3-0.13,0.22-0.4,0.29-0.64
		c1.52-0.12,2.21-1.5,3.47-2.24c0.03,1,0.29,1.98,0.41,2.96c0.13,1.06,0.04,2.15,0.02,3.23c0,0.19-0.13,0.32-0.35,0.28
		c0-1.18,0-2.36,0-3.57c-1.14,0.38-1.82,1.25-2.72,1.8c-2.15,1.31-4.44,2.05-6.96,1.74c-1.09-0.13-2-0.91-3.11-1.12
		C95.25,80.58,94.78,80.15,94.68,79.63z"/>
	<path class="st1" d="M152.28,67.03c0.45-0.72,1.13-0.15,1.6-0.38c0.29,0.29,0.5,0.5,0.73,0.73c0.7,0,1.41,0,2.19,0
		c0.2,0.24,0.42,0.51,0.59,0.73c0.96,0.02,1.82-0.07,2.64,0.35c1.25,0.66,2.63,0.27,3.93,0.38c0.45,0.37,0.91,0.66,1.51,0.72
		c0.61,0.06,0.92,0.43,0.84,1.07c-2.34-0.41-4.77-0.37-7.04-1.1C156.92,68.78,154.49,68.21,152.28,67.03z"/>
	<path class="st0" d="M59.4,42.55c0.72,0,1.44,0,2.16,0C60.89,43.06,60.07,43.06,59.4,42.55z"/>
	<path class="st1" d="M179.28,60.91c-0.33,0-0.66,0-1.08,0c0-0.42,0-0.75,0-1.08C178.71,60.04,179.07,60.4,179.28,60.91z"/>
	<path class="st0" d="M68.4,42.55c0.36,0,0.72,0,1.08,0C69.12,43.04,68.76,43.04,68.4,42.55z"/>
	<path class="st0" d="M43.92,42.91c0.17-0.69,0.73-0.22,1.08-0.36C44.83,43.25,44.27,42.77,43.92,42.91z"/>
	<path class="st1" d="M146.52,76.75c0.27,0.05,0.69-0.18,0.72,0.36C146.97,77.06,146.55,77.29,146.52,76.75z"/>
	<path class="st1" d="M147.6,77.47c0.27,0.05,0.69-0.18,0.72,0.36C148.05,77.78,147.63,78.01,147.6,77.47z"/>
	<path class="st1" d="M148.32,77.83c0.27,0.05,0.69-0.18,0.72,0.36C148.77,78.14,148.35,78.37,148.32,77.83z"/>
	<path class="st0" d="M45.72,42.55c0.12,0,0.24,0,0.36,0c0.01,0.17-0.02,0.33-0.24,0.29C45.78,42.82,45.76,42.65,45.72,42.55z"/>
	<path class="st0" d="M70.2,42.55c0.12,0,0.24,0,0.36,0c0.01,0.17-0.02,0.33-0.24,0.29C70.26,42.82,70.24,42.65,70.2,42.55z"/>
	<path class="st1" d="M61.2,6.19c-0.17,0.01-0.33-0.02-0.29-0.24c0.01-0.06,0.19-0.08,0.29-0.12C61.2,5.95,61.2,6.07,61.2,6.19z"/>
	<path class="st0" d="M151.78,34.96c-0.51,0-1.02,0-1.6,0c0-0.66,0-1.3,0-2.05c0.47-0.21,1.05,0,1.56-0.1
		C152.47,33.81,152.47,34,151.78,34.96z"/>
	<path class="st0" d="M100.47,35.02c0-0.78,0-1.42,0-2.12c0.69,0,1.37,0,2.09,0c0,0.55,0,1.07,0,1.59
		C102.01,35.33,101.21,34.86,100.47,35.02z"/>
	<path class="st0" d="M95.04,36.49c-0.34,0.71-0.7,1.3-1.29,1.74c-0.32,0-0.68,0-1.05,0c-0.16-0.17-0.33-0.34-0.5-0.51
		c0-1.59,0-3.19,0-4.84c0.67,0,1.32,0,1.99,0C95.38,33.88,94.98,35.3,95.04,36.49z"/>
	<path class="st0" d="M79.84,36.33c0.27-0.27,0.44-0.44,0.67-0.67c0.32,0.94,1.19,1.48,1.74,2.48
		C80.82,38.2,80.32,37.36,79.84,36.33z"/>
	<path class="st0" d="M82.14,32.38c0.84,0.99,0.84,0.99,0.08,1.89C81.06,33.57,81.05,33.41,82.14,32.38z"/>
	<path class="st0" d="M72.24,37.46c-1.12,0.74-1.12,0.74-2.36,0.67c0-1.71,0-3.43,0-5.17c0.49-0.31,1.05,0.03,1.44-0.14
		c1,0.46,1.1,1.39,1.37,2.17C72.99,35.83,72.39,36.63,72.24,37.46z"/>
	<path class="st0" d="M144.34,37.6c-0.38,0.7-0.98,0.58-1.25,0.97c-0.4-0.43-0.96-0.56-1.48-0.75c-0.44-0.96-0.65-2-0.46-3.02
		c0.18-0.97,0.41-2.02,1.39-2.21c0.73-0.38,0.78,0.63,1.28,0.19C144.51,34.37,144.53,34.52,144.34,37.6z"/>
	<path class="st0" d="M55.78,37.71c-0.24,0.24-0.37,0.37-0.51,0.51c-0.46,0-0.93,0-1.42,0c-0.95-0.6-1.15-1.62-1.27-2.62
		c-0.12-0.98,0.55-1.79,0.76-2.72c0.68,0,1.32,0,2.01,0c0.53,0.73,0.79,1.55,0.83,2.49C56.22,36.24,55.54,36.95,55.78,37.71z"/>
	<path class="st0" d="M61.33,33.24c0.31-0.46,0.9-0.45,1.28-0.78c0.82,0.33,1.67,0.6,1.72,1.75c0.09,1.25,0.29,2.67-0.66,3.94
		c-0.5,0-1.02,0-1.66,0C60.52,36.78,60.62,35.06,61.33,33.24z"/>
	<path class="st0" d="M130.37,34.66c-0.74-0.1-1.53,0.22-2.1-0.17c-0.39-0.26-0.81-0.05-1.11-0.33c-0.09-0.08-0.19-0.15-0.25-0.25
		c-0.08-0.14-0.16-0.3-0.18-0.45c-0.02-0.16,0.01-0.34,0.03-0.51c0.43-0.32,1.15,0.27,1.28-0.59
		C129.11,32.97,130.14,33.38,130.37,34.66z"/>
</g>
</svg>
