<?xml version="1.0" encoding="utf-8"?>
<!-- Generator: Adobe Illustrator 23.0.1, SVG Export Plug-In . SVG Version: 6.00 Build 0)  -->
<svg version="1.1" id="Layer_1" xmlns="http://www.w3.org/2000/svg" xmlns:xlink="http://www.w3.org/1999/xlink" x="0px" y="0px"
	 viewBox="0 0 207.72 102.96" style="enable-background:new 0 0 207.72 102.96;" xml:space="preserve">
<style type="text/css">
	.st0{fill:#DD0131;}
	.st1{fill:#090909;}
</style>
<g>
	<path class="st0" d="M84.55,20.51c0.66,0.62,1.49,0.34,2.23,0.34c22.07-0.01,44.14-0.04,66.21-0.04c0.68,0,1.84-0.56,1.77,0.96
		c-1.78,2.3-2.74,5.08-4.27,7.53c-0.61,0.99-1.22,1.19-2.26,1.19c-20.8-0.01-41.59,0.02-62.39-0.01c-1.42,0-1.77,0.37-1.76,1.79
		c0.08,7.73,0,15.46,0.06,23.19c0.01,1.44-0.43,1.83-1.85,1.81c-3.95-0.06-7.91,0.03-11.86,0.07c-1.31,0.14-1.05-0.8-1.05-1.54
		c-0.01-7.44,0-14.88-0.01-22.31c0-0.66-0.06-1.31-0.1-1.97c0.13-0.84-0.35-0.99-1.05-0.98c-4.27,0.04-8.55,0.06-12.82,0.08
		c-0.94,0.01-1.45-0.2-0.99-1.34c0.93-2.3,1.8-4.63,2.57-6.98c0.33-1.01,0.92-1.23,1.86-1.21c2.93,0.04,5.87-0.03,8.8,0.05
		c1.22,0.03,1.74-0.21,1.88-1.59c0.44-4.52,1.71-8.76,4.53-12.46c3.92-5.15,14.95-9.2,22.5-2.65c0.74,0.64,1.3,1.48,1.95,2.22
		c-0.36,0.68,0.2,1.19,0.36,1.76c0.84,3.05-0.48,6.39-3.19,7.5c-1.85,0.76-3.87,0.4-5.82,0.32c-1.97-0.97-2.96-2.63-3.34-4.72
		c0.1-0.61,0.02-1.18-0.47-1.65c-0.48,0.35-0.89,0.7-1.21,1.24c-1.67,2.83-1.45,5.96-1.51,9.04C83.33,20.98,83.92,21.1,84.55,20.51z
		"/>
	<path class="st0" d="M121.6,57.89c-3.78-2.02-5.12-5.45-5.39-9.46c-0.19-2.74-0.27-5.48-0.4-8.22c0.01-1.32,0.02-2.64,0.03-3.95
		c0.39-3.22,0.39-3.22,3.63-3.22c2.32,0,4.65,0.03,6.97-0.01c0.8-0.01,1.4,0.1,1.44,1.06c-0.36,4.4-0.08,8.8-0.16,13.2
		c-0.01,0.73,0.25,1.28,1.07,1.38c1.63,0.69,2.69,0.09,2.71-1.63c0.04-4.13,0.06-8.26,0-12.39c-0.02-1.2,0.26-1.68,1.57-1.64
		c3.17,0.09,6.34,0.03,9.52,0.03c0.61,0,1.4-0.23,1.36,0.85c-0.01,2.58-0.03,5.15-0.03,7.73c0,5.87,0,11.75,0.01,17.62
		c0,1.03-0.11,1.92-1.33,2.19c-3.42,0.75-6.83,1.52-10.25,2.27c-2.5-0.26-1-1.98-1.13-3.11c0,0-0.03,0.03-0.03,0.03
		c-0.1-0.94-0.2-1.88-0.29-2.8c-0.11-0.46-0.12-0.91,0.12-1.37c0.22-0.42,0.36-0.98-0.11-1.29c-0.49-0.33-0.88,0.12-1.23,0.44
		C127.36,57.68,124.69,58.52,121.6,57.89z"/>
	<path class="st1" d="M43.95,64.87c-1.36,1.75-2.11,3.62-2.93,5.42c-3.73,8.2-6.43,16.72-7.99,25.59c-0.14,0.77-0.43,1.29-1.16,1.66
		c-1.43,0.74-2.84,1.55-4.22,2.38c-1.16,0.7-1.39,0.31-1.3-0.89c0.38-5.14,0.74-10.28,1.05-15.42c0.16-2.76-0.01-5.5-1.02-8.13
		c-0.71,0.08-0.46,0.63-0.53,0.98c-1.73,7.69-4.93,14.61-10.75,20.09c-2.36,2.22-5.09,3.76-8.44,3.94c-1.97,0.1-3.57-0.54-4.47-2.36
		c-0.91-1.84-0.83-3.71,0.32-5.45c0.33-0.5,0.77-0.99,1.44-0.94c0.79,0.06,0.83,0.82,0.94,1.36c0.37,1.87,0.78,3.79,2.87,4.38
		c2.15,0.61,3.6-0.87,4.96-2.25c3.39-3.46,5.26-7.81,6.93-12.24c1.92-5.11,2.98-10.44,4.06-15.78c0.53-2.63-2.35-7.05-4.68-7.78
		c-1.87-0.59-3.54-0.37-5.05,0.86c-2.62,2.12-4,5.01-4.99,8.13c-0.18,0.55-0.32,1.12-0.47,1.65c-0.56-0.06-0.56-0.36-0.5-0.67
		c1.02-4.78,3.11-8.94,7.14-11.86c4.11-2.97,8.4-2.07,11,2.29c2.54,4.28,3.14,9.11,3.64,13.95c0.49,4.77,0.46,9.55,0.47,14.37
		c1.73-4.76,3.72-9.39,5.89-13.94c2.4-5.02,4.92-9.97,7.78-14.74c0.5-0.84,1.09-1.5,1.98-1.98c1.91-1.04,3.41-2.62,5.1-3.96
		c0.66-0.53,1.42-1.17,2.23-0.47c0.88,0.76,0.49,1.75,0.04,2.63c-0.47,0.92-1.09,1.11-2.05,0.56c-1.4-0.81-2.25-0.05-2.79,1.22
		c-1.05,2.45-1.34,5.09-1.69,7.69c-1.22,9.08-2.56,18.15-3.46,27.27c-0.08,0.77-0.17,1.55-0.16,2.33c0,2.84,0.7,3.49,3.47,3.46
		c0.46,0,1.25-0.42,1.32,0.39c0.05,0.53-0.67,0.54-1.13,0.65c-1.97,0.5-3.93,1.03-5.9,1.51c-1.78,0.43-2.65-0.19-2.46-2.1
		c0.27-2.73,0.78-5.45,1.25-8.16c1.45-8.31,2.94-16.62,4.4-24.93C44.11,65.43,44.03,65.27,43.95,64.87z"/>
	<path class="st0" d="M170.57,39.65c3.43,0.73,6.93,1.21,9.77,3.61c0.83,0.7,1.39,1.58,2.12,2.33c-0.07,0.09-0.22,0.22-0.2,0.25
		c2.69,4.28-0.87,10.29-5.51,12.02c-2.8,1.04-5.63,1.4-8.6,0.95c-0.88-0.13-1.87-0.54-2.73,0.16c-2.49-0.98-5.09-1.69-7.3-3.31
		c-0.85-0.62-1.13-1.17-0.63-2.21c0.56-1.16,0.52-2.93,1.56-3.47c0.96-0.5,2.22,0.75,3.39,1.13c2.74,0.91,5.52,1.44,8.41,1.14
		c0.47-0.05,1.03-0.12,1.08-0.71c0.04-0.46-0.47-0.44-0.78-0.56c0.02-1-0.77-0.93-1.38-0.97c-1.06-0.07-2.13-0.04-3.2-0.06
		c-1.75-0.55-3.59-0.83-5.17-1.84c-4.22-2.69-4.92-7.56-1.62-11.37c2.92-3.37,6.81-4.6,11.07-4.71c4.33-0.11,8.38,1.04,12.08,3.33
		c-0.03,0.3-0.04,0.6-0.1,0.89c-0.66,3.22-0.69,3.24-3.76,2.31c-2.63-0.8-5.3-1.27-8.05-0.9c-0.6,0.08-1.46-0.27-1.71,0.57
		C169.02,39.22,170.01,39.3,170.57,39.65z"/>
	<path class="st0" d="M106.87,43.43c-1.51-0.7-2.87-1.55-3.45-3.24c-0.18-0.42-0.14-1.06-0.72-1.12c-0.64-0.07-0.7,0.57-0.82,1
		c-0.2,0.74-0.39,1.51-0.42,2.27c-0.14,4.18-0.24,8.35-0.31,12.53c-0.04,2.41-0.01,2.4-2.49,2.38c-2.21-0.01-4.42,0-6.63-0.02
		c-0.67,0-1.32-0.01-1.58,0.79c-1.43-0.82-1.19-2.2-1.19-3.51c0.01-6.64,0.03-13.29-0.02-19.93c-0.01-1.27,0.22-1.82,1.64-1.78
		c3.23,0.1,6.5-0.25,9.68,0.15c2.02,0.25,3.22-0.63,4.62-1.56c2.02-0.01,4.04-0.02,6.06-0.03c-0.22,0.24-0.62,0.46,0.08,0.62
		c1.57,0.36,2.53,1.51,3.43,2.73c-0.56,0.49-0.29,1.06-0.18,1.63c0.34,1.7-0.01,3.17-1.09,4.63
		C111.76,43.3,109.44,43.6,106.87,43.43z"/>
	<path class="st1" d="M130.61,72.29c2.51-0.96,4.85-2.01,5.39-5.15c0.28-1.63,1.8-1.04,2.83-0.87c1.26,0.21,1.13,1.11,0.75,2.05
		c-0.17,0.42-0.48,0.84-0.27,1.39c0.15,0.03,0.32,0.08,0.49,0.09c5.37,0.25,7.42,2.55,7.02,7.89c-0.4,5.43-5.24,11.28-10.24,12.37
		c-0.52,0.11-1.15,0.35-1.58,0.17c-1.92-0.81-2.16,0.5-2.51,1.81c-0.56,2.08-1.19,4.13-1.74,6.21c-0.52,1.96-0.29,2.26,1.65,2.63
		c0.53,0.1,1.37-0.09,1.33,0.82c-0.04,0.8-0.74,0.75-1.35,0.77c-2.93,0.12-5.86,0.28-8.79,0.4c-0.49,0.02-1.12,0.26-1.28-0.56
		c-0.18-0.91,0.5-0.98,1.08-1.05c1.39-0.17,2.37-0.84,2.78-2.19c2.62-8.61,5.23-17.23,7.9-26.04c-1.35,0.05-2.24,0.76-3.21,1.22
		c-0.41,0.2-0.8,0.92-1.34,0.19c-0.53-0.71,0.07-1.05,0.5-1.46c0.24-0.23,0.68-0.29,0.66-0.76L130.61,72.29z M142.29,75.91
		c0.01-1.04-0.11-2.04-0.77-2.89c-0.59-0.75-1.37-1.17-2.34-1.06c-0.99,0.11-0.86,1.02-1.06,1.65c-1.16,3.71-2.29,7.42-3.43,11.13
		c-0.38,1.23-0.85,2.59,0.57,3.35c1.31,0.7,2.16-0.52,3.04-1.27c0.31-0.27,0.59-0.61,0.81-0.96
		C141.05,82.82,142.13,79.51,142.29,75.91z"/>
	<path class="st1" d="M90.01,74.36c1.01,0.2,1.23-0.66,1.69-1.12c1.56-1.6,3.13-3.15,5.47-3.54c1.38-0.23,2.67-0.13,3.61,1
		c0.98,1.18,0.93,2.56,0.39,3.9c-1.24,3.07-3.74,4.77-6.7,5.81c-1.07,0.38-1.31,0.78-0.97,1.76c0.4,1.18,0.66,2.42,1.13,3.58
		c0.62,1.56,1.11,1.64,2.31,0.54c0.27-0.24,0.47-0.57,0.76-0.76c0.41-0.28,0.47-1.37,1.31-0.7c0.68,0.55,0.01,1.12-0.23,1.58
		c-0.71,1.33-1.61,2.52-2.92,3.34c-2.01,1.26-3.47,0.85-4.49-1.34c-0.71-1.52-1.08-3.16-1.49-4.79c-0.14-0.58-0.14-1.42-1.09-1.39
		c-0.79,0.03-1.12,0.6-1.35,1.25c-0.6,1.75-1.26,3.48-1.77,5.25c-0.41,1.45-1.22,1.95-2.65,1.58c-1.63-0.43-1.16-1.54-0.85-2.58
		c2-6.57,4.05-13.13,5.99-19.72c0.45-1.52,1.68-3.24-0.61-4.56c-0.53-0.3-0.17-1.09,0.59-1.3c1.67-0.45,3.33-0.94,5.01-1.37
		c1.15-0.3,1.37,0.21,1.02,1.23C92.75,66.12,91.64,70.3,90.01,74.36z M97.03,74.03c0-1.34-1.21-1.84-2.54-1.05
		c-2.53,1.5-4.3,3.73-5.66,6.3c-0.15,0.29-0.44,0.66-0.14,0.98c0.33,0.35,0.75,0.22,1.16,0.07c2.67-0.92,4.89-2.45,6.52-4.77
		C96.7,75.09,96.84,74.48,97.03,74.03z"/>
	<path class="st1" d="M58.22,83.53c-1.15,1.23-2.09,2.28-3.07,3.29c-1.08,1.13-2.26,2.15-3.69,2.83c-1.03,0.49-2.11,1.03-3.21,0.22
		c-1.16-0.84-1.34-2.11-1.14-3.4c0.37-2.39,1.32-4.58,2.44-6.71c1.84-3.5,4.18-6.58,7.55-8.73c1.55-0.99,3.13-2.01,5.1-0.59
		c0.78,0.57,0.81-0.62,0.94-0.99c0.37-1.06,0.87-1.69,2.09-1.37c1.29,0.33,1.93,0.81,1.37,2.4c-1.72,4.9-3.25,9.86-4.86,14.8
		c-0.14,0.44-0.55,0.99-0.15,1.33c0.5,0.42,1.02-0.13,1.4-0.43c0.85-0.66,1.62-1.41,2.42-2.14c0.28-0.26,0.59-0.49,0.93-0.21
		c0.31,0.26,0.26,0.65,0.14,1c-0.66,1.95-5.41,5.38-7.49,5.42c-1.38,0.03-1.98-0.86-1.7-2.47C57.52,86.47,58.31,85.27,58.22,83.53z
		 M59.53,71.92c-0.54,0.08-1.05,0.27-1.44,0.67c-3.56,3.71-5.43,8.19-6.01,13.25c-0.04,0.34-0.13,0.77,0.23,0.99
		c0.46,0.29,0.8-0.11,1.09-0.36c3.91-3.3,6.35-7.55,7.85-12.37C61.59,73,60.63,71.91,59.53,71.92z"/>
	<path class="st1" d="M172.99,70.75c0.21-0.44,0.47-0.85,0.59-1.3c0.39-1.46,1.24-1.65,2.59-1.19c1.46,0.49,1.13,1.32,0.78,2.38
		c-1.63,4.87-3.21,9.75-4.79,14.64c-0.14,0.43-0.56,0.97-0.13,1.33c0.52,0.43,1.02-0.12,1.41-0.42c0.76-0.58,1.43-1.26,2.16-1.88
		c0.33-0.28,0.6-0.9,1.17-0.45c0.48,0.39,0.27,0.86-0.05,1.27c-1.67,2.16-3.53,4.08-6.24,4.9c-2.2,0.67-3.21-0.31-2.67-2.58
		c0.16-0.7,0.4-1.38,0.61-2.06c0.19-0.61,0.38-1.22,0.66-2.14c-1.04,0.5-1.34,1.29-1.84,1.85c-1.57,1.74-3.17,3.44-5.29,4.53
		c-1.01,0.52-2.07,1.05-3.2,0.28c-1.14-0.78-1.32-1.95-1.2-3.18c0.26-2.55,1.33-4.82,2.49-7.06c1.88-3.62,4.38-6.71,7.87-8.9
		C170.07,69.41,171.26,69.44,172.99,70.75z M162.4,85.59c0.14,0.57-0.03,1.11,0.46,1.27c0.44,0.15,0.76-0.23,1.08-0.5
		c3.79-3.18,6.08-7.33,7.67-11.92c0.3-0.87,0.12-1.66-0.7-2.21c-0.85-0.57-1.66-0.31-2.29,0.3C164.89,76.16,163.3,80.79,162.4,85.59
		z"/>
	<path class="st1" d="M87.4,94.8c-11.45,0-22.91,0-34.36,0c-0.42,0-0.84-0.03-1.26,0c-0.7,0.05-0.96-0.27-0.96-0.95
		c0.01-0.62,0.13-1.07,0.89-1c0.36,0.03,0.72,0,1.08,0c22.97,0,45.93,0,68.9,0c0.12,0,0.24-0.02,0.36,0
		c0.65,0.14,1.65-0.46,1.68,0.93c0.03,1.35-0.92,1-1.61,1c-5.22,0.02-10.43,0.01-15.65,0.01C100.12,94.8,93.76,94.8,87.4,94.8z"/>
	<path class="st1" d="M101.39,83.56c0.66-5.18,3.04-10.2,8.35-13.45c2.6-1.59,5.05-1.42,6.36,0.26c1.4,1.8,0.87,4.41-1.41,6.51
		c-2.02,1.86-4.51,2.89-7.08,3.72c-0.83,0.27-1.55,0.54-1.52,1.64c0.04,1.56-0.67,3.31,0.88,4.5c1.02,0.78,2.09,0.15,2.99-0.43
		c0.85-0.55,1.58-1.27,2.37-1.91c0.25-0.21,0.45-0.65,0.88-0.32c0.32,0.24,0.33,0.6,0.24,0.98c-0.73,2.98-6.36,6.03-9.25,5.02
		C102.33,89.41,101.31,87.36,101.39,83.56z M107.25,78.81c2.86-0.98,4.72-2.95,5.63-5.8c0.21-0.65,0.4-1.54-0.4-1.94
		c-0.68-0.34-1.22,0.27-1.68,0.72c-1.93,1.89-3.1,4.21-3.84,6.78c-0.01,0.14-0.02,0.28-0.03,0.42
		C107.04,78.94,107.15,78.88,107.25,78.81z"/>
	<path class="st1" d="M191.38,83.71c0.54-4.98,2.82-9.73,7.54-13.14c1.13-0.82,2.41-1.33,3.79-1.5c2.67-0.34,4.62,1.86,4.04,4.49
		c-0.43,1.95-1.72,3.25-3.28,4.31c-1.84,1.25-3.88,2.09-5.99,2.78c-1.34,0.44-2.03,3.51-1.23,5.3c0.57,1.27,1.87,1.49,3.53,0.46
		c0.91-0.56,1.68-1.34,2.52-2c0.24-0.19,0.38-0.71,0.84-0.37c0.39,0.29,0.39,0.68,0.25,1.13c-0.84,2.75-6,5.7-8.82,5.03
		C192.48,89.7,191.32,87.59,191.38,83.71z M196.76,79.14c3.09-1.22,5.16-3.1,6.1-6.07c0.21-0.66,0.4-1.52-0.34-1.97
		c-0.67-0.41-1.22,0.19-1.68,0.63C198.78,73.73,197.6,76.2,196.76,79.14z"/>
	<path class="st1" d="M148.86,90.76c-1.88,0.03-2.72-0.8-2.36-2.66c0.38-1.99,1.01-3.93,1.6-5.87c1.41-4.62,2.87-9.23,4.28-13.86
		c0.42-1.37,0.95-2.75-0.87-3.7c-0.77-0.4-0.61-1.09,0.25-1.41c1.86-0.68,3.79-1.08,5.74-1.37c1.25-0.18,0.8,0.67,0.62,1.27
		c-1.42,4.68-2.84,9.37-4.27,14.05c-0.94,3.08-1.88,6.16-2.82,9.25c-0.13,0.43-0.51,0.94,0.08,1.27c0.54,0.29,0.9-0.21,1.2-0.54
		c1.05-1.15,2.05-2.34,3.07-3.51c0.23-0.26,0.43-0.65,0.86-0.44c0.37,0.18,0.39,0.53,0.33,0.92
		C156.16,87.06,151.89,90.72,148.86,90.76z"/>
	<path class="st1" d="M130.66,72.23c-0.47,0.03-0.95,0.08-1.42,0.1c-3.56,0.11-3.57,0.1-4.57,3.45c-0.92,3.09-1.82,6.19-2.71,9.29
		c-0.11,0.37-0.45,0.85,0,1.15c0.42,0.28,0.78-0.14,1.1-0.37c1.16-0.86,2.19-1.86,3.1-2.98c0.27-0.34,0.57-0.75,1.01-0.45
		c0.38,0.25,0.37,0.81,0.15,1.15c-1.95,3.11-4.38,5.71-8.1,6.63c-1.49,0.37-2.36-0.71-2.05-2.47c0.62-3.47,1.89-6.77,2.8-10.17
		c0.32-1.21,0.59-2.45,1.04-3.61c0.49-1.24,0.28-1.73-1.14-1.63c-0.55,0.04-1.49,0.46-1.64-0.48c-0.15-0.94,0.56-1.36,1.47-1.39
		c2.04-0.07,3.24-1.19,3.96-3.02c0.28-0.72,0.73-1.37,1.13-2.04c0.51-0.85,1.27-0.78,2.05-0.49c0.81,0.3,0.54,0.94,0.41,1.51
		c-0.01,0.06-0.04,0.11-0.05,0.17c-0.21,1.1-1.11,2.4-0.55,3.23c0.5,0.74,2,0.2,3.06,0.24c2.01,0.08,0.6,1.5,0.9,2.24
		C130.61,72.29,130.66,72.23,130.66,72.23z"/>
	<path class="st1" d="M75.27,76.7c1.32-2.12,2.28-4.47,4.06-6.29c0.85-0.88,1.77-1.84,3.09-1.18c1.39,0.7,1.47,2.09,1.23,3.45
		c-0.17,0.94-0.41,1.88-1.11,2.61c-0.33,0.35-0.67,0.72-1.22,0.62c-0.59-0.1-0.66-0.6-0.78-1.07c-0.17-0.66-0.06-1.67-0.92-1.73
		c-0.74-0.05-1.09,0.85-1.46,1.45c-2.75,4.39-4.3,9.31-6.13,14.1c-0.29,0.75-0.52,1.45-1.46,1.61c-1.81,0.3-2.68-0.7-2.15-2.55
		c1.3-4.53,2.62-9.05,3.92-13.59c0.14-0.48,0.6-1.08-0.02-1.45c-0.54-0.32-1.03,0.15-1.41,0.52c-0.52,0.5-1,1.03-1.48,1.57
		c-0.26,0.29-0.55,0.56-0.91,0.33c-0.33-0.21-0.29-0.62-0.22-0.99c0.36-1.77,3.26-4.63,5.07-5c1.63-0.33,2.5,0.37,2.56,2.08
		c0.06,1.83-0.71,3.5-1.07,5.25c0.01,0.3-0.6,0.56-0.19,0.81C75.13,77.52,75.18,77.01,75.27,76.7z"/>
	<path class="st1" d="M182.44,83.64c0,0.36-0.02,0.72,0,1.08c0.16,2.27,1.39,2.91,3.39,1.79c0.91-0.5,1.59-1.27,2.3-1.99
		c0.3-0.31,0.63-0.66,1.05-0.27c0.34,0.32,0.35,0.77,0.07,1.15c-1.87,2.53-4.09,4.57-7.4,4.85c-1.86,0.16-3.09-0.85-3.68-2.75
		c-0.78-2.52-0.36-5,0.45-7.4c1.34-3.99,3.4-7.54,7.03-9.9c1.66-1.07,3.49-1.59,5.46-0.82c1.17,0.45,1.81,1.34,1.95,2.57
		c0.13,1.13-0.07,2.15-1.09,2.86c-1.37,0.96-2.55,0.46-2.75-1.18c-0.06-0.47-0.09-0.95-0.19-1.41c-0.25-1.18-0.94-1.33-1.8-0.62
		c-0.55,0.45-1.07,0.99-1.44,1.58C183.77,76.37,182.63,79.86,182.44,83.64z"/>
	<path class="st1" d="M168.61,92.8c10.43,0,20.86,0,31.29,0c0.42,0,0.84,0.01,1.26,0c0.56-0.01,0.72,0.3,0.68,0.8
		c-0.04,0.45,0.14,1.02-0.61,1.05c-0.42,0.02-0.84,0.01-1.26,0.02c-21.04,0-42.08,0.01-63.11,0c-0.47,0-1.01,0.07-1.39-0.13
		c-0.48-0.26-0.25-0.87-0.21-1.32c0.06-0.62,0.62-0.41,0.99-0.41c2.76-0.01,5.51-0.01,8.27-0.01
		C152.54,92.79,160.57,92.8,168.61,92.8z"/>
	<path class="st1" d="M111.23,31.36c-2.02,0.01-4.04,0.02-6.06,0.03c-0.61,0.01-1.23,0.01-1.84,0.02c0,0-0.06-0.08-0.06-0.08
		l-0.08,0.07c-4.28,0-8.55-0.01-12.82-0.01c-0.4,0-0.8,0.01-1.21,0.01c-3.86,0.14-3.86,0.14-3.86,4.02c0,7.08-0.03,14.16,0.03,21.23
		c0.01,1.17-0.13,1.67-1.49,1.63c-4.02-0.1-8.04-0.03-12.06-0.03c-0.65,0-1.4,0.15-1.34-0.9c3.95-0.03,7.91-0.13,11.86-0.07
		c1.42,0.02,1.86-0.37,1.85-1.81c-0.06-7.73,0.01-15.46-0.06-23.19c-0.01-1.42,0.34-1.79,1.76-1.79c20.8,0.03,41.59,0,62.39,0.01
		c1.04,0,1.64-0.2,2.26-1.19c1.53-2.46,2.49-5.23,4.27-7.53c1.09-0.05,1.7,0.03,0.87,1.38c-1.57,2.56-2.96,5.23-4.42,7.85
		c0,0-0.02-0.02-0.02-0.02c-0.28,0.63-0.87,0.36-1.33,0.45c0,0,0.01-0.04,0.01-0.04c-1.05-0.01-2.09-0.03-3.13-0.04
		c-0.67,0-1.35,0-2.03,0.01c-4.47,0.01-8.95,0.02-13.42,0.03c-0.09,0-0.19-0.01-0.28-0.01c-1.64,0-3.28-0.01-4.92-0.01
		c0,0-0.01,0.03-0.01,0.03c-4.48,0-8.97,0-13.45-0.01c0,0-0.06,0-0.06,0C112.12,31.38,111.68,31.37,111.23,31.36z"/>
	<path class="st1" d="M183.5,61.84c7.37,0,14.74-0.01,22.1,0.02c0.58,0,1.49-0.47,1.53,0.83c0.04,1.35-0.87,1.01-1.57,1.01
		c-14.68,0.01-29.35,0.01-44.03-0.01c-0.59,0-1.46,0.43-1.51-0.86c-0.06-1.4,0.88-0.99,1.55-0.99
		C168.89,61.83,176.19,61.84,183.5,61.84z"/>
	<path class="st1" d="M68.19,63.71c-5.28,0-10.56-0.01-15.84,0c-0.74,0-1.39,0.13-1.35-1.04c0.04-1.16,0.78-0.83,1.35-0.83
		c10.62-0.01,21.23-0.01,31.85,0.01c0.56,0,1.33-0.34,1.37,0.82c0.04,1.18-0.64,1.04-1.37,1.04C78.87,63.71,73.53,63.71,68.19,63.71
		z"/>
	<path class="st0" d="M153.83,42.74c-0.49-0.06-0.87-0.21-1.14-0.69c-1.68-2.96-3.4-5.9-5.28-9.16c3.81,0,7.31-0.01,10.81,0.01
		c0.6,0,0.34,0.47,0.29,0.8c-1.03,1.78-2.13,3.53-3.08,5.36C154.81,40.24,153.83,41.28,153.83,42.74z"/>
	<path class="st1" d="M132.35,63.7c3.42-0.76,6.83-1.53,10.25-2.27c1.23-0.27,1.34-1.16,1.33-2.19c-0.02-5.87-0.02-11.75-0.01-17.62
		c0-2.58,0.02-5.15,0.03-7.73c0.89-0.08,1.26,0.24,1.26,1.22c-0.03,8.49-0.04,16.97,0.01,25.46c0.01,1.14-0.42,1.53-1.48,1.75
		c-3.5,0.7-6.99,1.47-10.47,2.29C132.28,64.84,132.28,64.37,132.35,63.7z"/>
	<path class="st1" d="M111.68,61.84c4.67,0,9.34-0.01,14.01,0.01c0.6,0,1.49-0.4,1.51,0.87c0.02,1.18-0.72,0.99-1.42,0.99
		c-9.28,0-18.57,0.01-27.85-0.01c-0.62,0-1.48,0.38-1.52-0.88c-0.04-1.41,0.95-0.96,1.6-0.96
		C102.58,61.82,107.13,61.84,111.68,61.84z"/>
	<path class="st1" d="M90.45,58.02c0.26-0.8,0.91-0.79,1.58-0.79c2.21,0.02,4.42,0,6.63,0.02c2.48,0.02,2.45,0.02,2.49-2.38
		c0.08-4.18,0.18-8.35,0.31-12.53c0.02-0.76,0.22-1.53,0.42-2.27c0.11-0.42,0.18-1.07,0.82-1c0.59,0.06,0.54,0.71,0.72,1.12
		c-0.9,1.97-0.82,4.09-0.87,6.16c-0.09,3.53-0.05,7.07-0.08,10.61c-0.01,0.54,0.26,1.31-0.74,1.28
		C97.96,58.11,94.19,58.53,90.45,58.02z"/>
	<path class="st1" d="M165.41,58.97c0.87-0.7,1.85-0.29,2.73-0.16c2.97,0.44,5.8,0.09,8.6-0.95c4.65-1.73,8.21-7.74,5.51-12.02
		c-0.02-0.03,0.13-0.16,0.2-0.25c2.27,1.81,2.2,4.22,1.55,6.65c-1.22,4.57-4.86,6.39-9,7.42C171.78,60.46,168.54,60.15,165.41,58.97
		z"/>
	<path class="st1" d="M89.87,16.24c1.95,0.07,3.97,0.43,5.82-0.32c2.72-1.11,4.03-4.46,3.19-7.5c-0.16-0.57-0.71-1.08-0.36-1.76
		c2.63,2.09,2.46,7.29-0.32,9.48C95.94,17.92,92.24,17.97,89.87,16.24z"/>
	<path class="st1" d="M170.57,39.65c-0.56-0.36-1.55-0.43-1.26-1.42c0.25-0.84,1.11-0.49,1.71-0.57c2.76-0.37,5.42,0.1,8.05,0.9
		c3.07,0.94,3.1,0.91,3.76-2.31c0.06-0.29,0.07-0.59,0.1-0.89c0.41,0.5,1.56,0.38,1.29,1.42c-0.31,1.19-0.52,2.46-1.34,3.42
		c-0.15,0.17-0.88-0.11-1.32-0.25c-3.01-0.93-6.03-1.84-9.24-1.49C171.59,38.55,170.52,38.32,170.57,39.65z"/>
	<path class="st1" d="M106.87,43.43c2.57,0.17,4.89-0.13,6.61-2.46c1.08-1.46,1.43-2.93,1.09-4.63c-0.12-0.58-0.38-1.14,0.18-1.63
		c0.75,0.25,0.74,1.03,1.1,1.55c-0.01,1.32-0.02,2.64-0.03,3.96c-2.06,3.8-4.86,4.96-8.69,3.6C107,43.77,106.95,43.56,106.87,43.43z
		"/>
	<path class="st1" d="M153.83,42.74c0-1.46,0.98-2.5,1.6-3.68c0.96-1.82,2.05-3.57,3.08-5.36c1.02-0.01,1.75,0.03,0.93,1.39
		c-1.52,2.54-2.95,5.14-4.32,7.76C154.47,44.07,154.2,43.41,153.83,42.74z"/>
	<path class="st1" d="M121.6,57.89c3.09,0.63,5.76-0.21,8.07-2.29c0.35-0.32,0.74-0.76,1.23-0.44c0.47,0.31,0.33,0.87,0.11,1.29
		c-0.24,0.47-0.23,0.91-0.12,1.37c-0.02,0.21-0.13,0.55-0.02,0.65c0.22,0.21,0.38,0,0.38-0.25c0-0.46,0.26-1.03-0.17-1.34
		c-0.5-0.36-0.85,0.23-1.2,0.46C126.48,59.61,124.37,59.75,121.6,57.89z"/>
	<path class="st1" d="M128.79,48.67c-0.83-0.09-1.08-0.65-1.07-1.38c0.07-4.4-0.2-8.8,0.16-13.2c0.84-0.18,1.01,0.24,1,0.98
		C128.83,39.6,128.82,44.13,128.79,48.67z"/>
	<path class="st1" d="M84.55,20.51c-0.63,0.58-1.22,0.47-1.21-0.37c0.06-3.08-0.17-6.21,1.51-9.04c0.32-0.54,0.73-0.89,1.21-1.24
		c0.49,0.48,0.57,1.04,0.47,1.65c-1.7,1.99-1.85,4.42-1.94,6.86C84.56,19.09,84.56,19.8,84.55,20.51z"/>
	<path class="st1" d="M55.42,30.63c4.27-0.03,8.55-0.05,12.82-0.08c0.7-0.01,1.18,0.14,1.05,0.98c-4.23,0.01-8.47,0.01-12.7,0.02
		C55.96,31.55,55.17,31.75,55.42,30.63z"/>
	<path class="st1" d="M166.57,49.96c1.07,0.01,2.14-0.01,3.2,0.06c0.61,0.04,1.4-0.02,1.38,0.97
		C169.59,50.82,167.94,51.01,166.57,49.96z"/>
	<path class="st0" d="M144.7,31.37c0.68,0,1.36,0,2.03-0.01C146.06,31.59,145.38,31.52,144.7,31.37z"/>
	<path class="st0" d="M89.16,31.39c0.41,0,0.81-0.01,1.21-0.01C89.96,31.39,89.56,31.39,89.16,31.39z"/>
	<polygon class="st1" points="131.19,60.62 131.22,60.59 131.21,60.51 	"/>
	<path class="st0" d="M131.01,31.38c0.1,0,0.19,0.01,0.28,0.01C131.19,31.39,131.1,31.39,131.01,31.38z"/>
	<polygon class="st0" points="103.19,31.4 103.27,31.33 103.33,31.41 103.25,31.49 	"/>
	<path class="st0" d="M112.57,31.4c0,0,0.07,0,0.06,0C112.61,31.4,112.59,31.4,112.57,31.4z"/>
	<path class="st0" d="M151.19,30.99c0,0,0.02,0.02,0.02,0.02C151,31.25,151.05,31.17,151.19,30.99z"/>
	<path class="st0" d="M126.08,31.41c0,0,0.01-0.03,0.01-0.03C126.09,31.38,126.08,31.41,126.08,31.41z"/>
	<path class="st0" d="M149.87,31.4c0,0,0,0.04-0.01,0.04C149.86,31.44,149.87,31.4,149.87,31.4z"/>
</g>
</svg>
